{
    "extensionsUsed": [
        "gl_avatar"
    ],
    "extensions": {
        "gl_avatar": {
            "visibility": [
                0, 
                0, 0, 1, 1, 1, 
                1, 1, 1, 1, 1, 
                1, 1, 1, 1, 1,
                1, 1, 1, 1, 1,
                1, 1, 1, 1, 1,
                1, 1, 1, 1, 1,
                1, 1, 1, 1, 1,
                1, 1, 1, 1, 1,
                1, 1, 1, 1, 1,
                1, 1, 1, 1, 1,
                1, 1, 1, 1, 1,
                1, 1, 1, 1
            ],
            "type": "skin"
        }
    },
    "accessors" : [
        {
            "bufferView" : 0, 
            "componentType" : 5123, 
            "count" : 3396, 
            "max" : [
                929
            ], 
            "min" : [
                0
            ], 
            "type" : "SCALAR"
        }, 
        {
            "bufferView" : 1, 
            "componentType" : 5126, 
            "count" : 930, 
            "max" : [
                8.566638946533203, 
                91.52593231201172, 
                6.731777191162109
            ], 
            "min" : [
                -8.86299991607666, 
                48.25699234008789, 
                -17.65488052368164
            ], 
            "type" : "VEC3"
        }, 
        {
            "bufferView" : 2, 
            "componentType" : 5126, 
            "count" : 930, 
            "max" : [
                0.9984435439109802, 
                0.9998779296875, 
                0.9936521649360657
            ], 
            "min" : [
                -0.9975890517234802, 
                -0.9986571669578552, 
                -0.999908447265625
            ], 
            "type" : "VEC3"
        }, 
        {
            "bufferView" : 3, 
            "componentType" : 5126, 
            "count" : 930, 
            "max" : [
                1.0, 
                0.9999082684516907, 
                0.9987993240356445, 
                1.0
            ], 
            "min" : [
                -0.9998970031738281, 
                -0.9992454648017883, 
                -0.9995549917221069, 
                1.0
            ], 
            "type" : "VEC4"
        }, 
        {
            "bufferView" : 4, 
            "componentType" : 5126, 
            "count" : 930, 
            "max" : [
                0.9950246810913086, 
                0.6208637952804565
            ], 
            "min" : [
                0.024950060993433, 
                0.008679747581481934
            ], 
            "type" : "VEC2"
        }, 
        {
            "bufferView" : 5, 
            "componentType" : 5123, 
            "count" : 930, 
            "max" : [
                18, 
                18, 
                20, 
                20
            ], 
            "min" : [
                2, 
                0, 
                0, 
                0
            ], 
            "type" : "VEC4"
        }, 
        {
            "bufferView" : 6, 
            "componentType" : 5126, 
            "count" : 930, 
            "max" : [
                1.0000617504119873, 
                1.0, 
                1.0, 
                1.0
            ], 
            "min" : [
                0.0, 
                0.0, 
                0.0, 
                0.0
            ], 
            "type" : "VEC4"
        }, 
        {
            "bufferView" : 7, 
            "componentType" : 5123, 
            "count" : 930, 
            "max" : [
                20, 
                20, 
                18, 
                0
            ], 
            "min" : [
                0, 
                0, 
                0, 
                0
            ], 
            "type" : "VEC4"
        }, 
        {
            "bufferView" : 8, 
            "componentType" : 5126, 
            "count" : 930, 
            "max" : [
                1.0, 
                1.0, 
                1.0, 
                0.0
            ], 
            "min" : [
                0.0, 
                0.0, 
                0.0, 
                0.0
            ], 
            "type" : "VEC4"
        }, 
        {
            "bufferView" : 9, 
            "componentType" : 5126, 
            "count" : 41, 
            "max" : [
                0.43375977873802185, 
                1.0000003576278687, 
                0.997833251953125, 
                0.0, 
                0.6729955077171326, 
                1.0000001192092896, 
                0.9969071745872498, 
                0.0, 
                1.0, 
                0.9955398440361023, 
                0.9983473420143127, 
                0.0, 
                44.287940979003906, 
                41.09016036987305, 
                67.64409637451172, 
                1.0
            ], 
            "min" : [
                -0.9966949820518494, 
                -1.0000001192092896, 
                -1.0000001192092896, 
                0.0, 
                -0.8531503677368164, 
                -0.9999614953994751, 
                -0.9975175857543945, 
                0.0, 
                -0.9993440508842468, 
                -0.30744481086730957, 
                -0.4462457597255707, 
                0.0, 
                -56.3353157043457, 
                -70.68925476074219, 
                -43.36322784423828, 
                1.0
            ], 
            "type" : "MAT4"
        }, 
        {
            "bufferView" : 10, 
            "componentType" : 5126, 
            "count" : 41, 
            "max" : [
                0.43375977873802185, 
                1.0000003576278687, 
                0.997833251953125, 
                0.0, 
                0.6729955077171326, 
                1.0000001192092896, 
                0.9969071745872498, 
                0.0, 
                1.0, 
                0.9955398440361023, 
                0.9983473420143127, 
                0.0, 
                44.287940979003906, 
                41.09016036987305, 
                67.64409637451172, 
                1.0
            ], 
            "min" : [
                -0.9966949820518494, 
                -1.0000001192092896, 
                -1.0000001192092896, 
                0.0, 
                -0.8531503677368164, 
                -0.9999614953994751, 
                -0.9975175857543945, 
                0.0, 
                -0.9993440508842468, 
                -0.30744481086730957, 
                -0.4462457597255707, 
                0.0, 
                -56.3353157043457, 
                -70.68925476074219, 
                -43.36322784423828, 
                1.0
            ], 
            "type" : "MAT4"
        }
    ], 
    "asset" : {
        "generator" : "Khronos Blender glTF 2.0 exporter", 
        "version" : "2.0"
    }, 
    "bufferViews" : [
        {
            "buffer" : 0, 
            "byteLength" : 6792, 
            "byteOffset" : 0, 
            "target" : 34963
        }, 
        {
            "buffer" : 0, 
            "byteLength" : 11160, 
            "byteOffset" : 6792, 
            "target" : 34962
        }, 
        {
            "buffer" : 0, 
            "byteLength" : 11160, 
            "byteOffset" : 17952, 
            "target" : 34962
        }, 
        {
            "buffer" : 0, 
            "byteLength" : 14880, 
            "byteOffset" : 29112, 
            "target" : 34962
        }, 
        {
            "buffer" : 0, 
            "byteLength" : 7440, 
            "byteOffset" : 43992, 
            "target" : 34962
        }, 
        {
            "buffer" : 0, 
            "byteLength" : 7440, 
            "byteOffset" : 51432, 
            "target" : 34962
        }, 
        {
            "buffer" : 0, 
            "byteLength" : 14880, 
            "byteOffset" : 58872, 
            "target" : 34962
        }, 
        {
            "buffer" : 0, 
            "byteLength" : 7440, 
            "byteOffset" : 73752, 
            "target" : 34962
        }, 
        {
            "buffer" : 0, 
            "byteLength" : 14880, 
            "byteOffset" : 81192, 
            "target" : 34962
        }, 
        {
            "buffer" : 0, 
            "byteLength" : 2624, 
            "byteOffset" : 96072
        }, 
        {
            "buffer" : 0, 
            "byteLength" : 2624, 
            "byteOffset" : 98696
        }
    ], 
    "buffers" : [
        {
            "byteLength" : 111876, 
            "uri" : "saber-pro-hair.bin"
        }
    ], 
    "images" : [
        {
            "uri" : "saber-suite-hair.png"
        }
    ], 
    "materials" : [
        {
            "name" : "07___Default", 
            "pbrMetallicRoughness" : {
                "baseColorFactor" : [
                    1, 
                    1, 
                    1, 
                    1.0
                ], 
                "baseColorTexture" : {
                    "index" : 0
                }, 
                "metallicFactor" : 0.0
            },
            "doubleSided": true
        }
    ], 
    "meshes" : [
        {
            "name" : "Untitled.003", 
            "primitives" : [
                {
                    "attributes" : {
                        "NORMAL" : 2, 
                        "POSITION" : 1, 
                        "TANGENT" : 3, 
                        "TEXCOORD_0" : 4
                    }, 
                    "indices" : 0, 
                    "material" : 0,
                    "extensions": {
                        "gl_avatar": {
                            "attributes": {
                                "JOINTS_0" : 5, 
                                "JOINTS_1" : 7, 
                                "WEIGHTS_0" : 6, 
                                "WEIGHTS_1" : 8
                            }
                        }
                    }
                }
            ]
        }
    ], 
    "nodes" : [
        {
            "children" : [
                1
            ], 
            "name" : "Bip001", 
            "rotation" : [
                -1.5454320489993734e-08, 
                -0.7071062922477722, 
                1.54543009500685e-08, 
                0.7071073055267334
            ], 
            "scale" : [
                0.009999998845160007, 
                0.009999999776482582, 
                0.009999998845160007
            ], 
            "translation" : [
                0.0, 
                0.9365723133087158, 
                0.003923905547708273
            ]
        }, 
        {
            "mesh" : 0, 
            "name" : "F016_Saber_suite_hair", 
            "rotation" : [
                1.5028442891385613e-15, 
                0.7071062922477722, 
                1.4142532978045352e-10, 
                0.7071073055267334
            ], 
            "scale" : [
                1.0000001192092896, 
                1.0, 
                1.0000001192092896
            ], 
            "translation" : [
                2.3046278953552246, 
                -23.535865783691406, 
                3.196058287358028e-06
            ],
            "extensions": {
                "gl_avatar": {
                    "skin": {
                        "name": "main",
                        "inverseBindMatrices": 9
                    }
                }
            }
        }
    ], 
    "samplers" : [
        {}
    ], 
    "scene" : 0, 
    "scenes" : [
        {
            "name" : "Scene", 
            "nodes" : [
                0
            ]
        }
    ],
    "textures" : [
        {
            "sampler" : 0, 
            "source" : 0
        }
    ]
}
