{
    "extensionsUsed": [
        "gl_avatar"
    ],
    "extensions": {
        "gl_avatar": {
            "visibility": [
                0, 
                1, 1, 1, 0, 0, 
                0, 0, 0, 0, 0, 
                0, 0, 0, 0, 0, 
                0, 0, 0, 0, 0, 
                0, 0, 0, 0, 0, 
                0, 0, 0, 0, 0,
                0, 0, 0, 0, 0, 
                0, 0, 0, 0, 0, 
                0, 0, 0, 0, 0,
                0, 0, 0, 0, 0,
                0, 0, 0, 0, 0,
                0, 0, 0, 0
            ],
            "type": "skin"
        }
    },
    "accessors" : [
        {
            "bufferView" : 0, 
            "componentType" : 5123, 
            "count" : 15102, 
            "max" : [
                3538
            ], 
            "min" : [
                0
            ], 
            "type" : "SCALAR"
        }, 
        {
            "bufferView" : 1, 
            "componentType" : 5126, 
            "count" : 3539, 
            "max" : [
                43.553436279296875, 
                66.91056823730469, 
                11.677962303161621
            ], 
            "min" : [
                -43.9931755065918, 
                -70.12076568603516, 
                -13.840238571166992
            ], 
            "type" : "VEC3"
        }, 
        {
            "bufferView" : 2, 
            "componentType" : 5126, 
            "count" : 3539, 
            "max" : [
                0.99969482421875, 
                0.9988097548484802, 
                0.999847412109375
            ], 
            "min" : [
                -0.99969482421875, 
                -1.0, 
                -0.99993896484375
            ], 
            "type" : "VEC3"
        }, 
        {
            "bufferView" : 3, 
            "componentType" : 5126, 
            "count" : 3539, 
            "max" : [
                1.0, 
                0.9999802112579346, 
                0.9994046092033386, 
                1.0
            ], 
            "min" : [
                -0.9999437928199768, 
                -0.9999885559082031, 
                -0.9996868968009949, 
                1.0
            ], 
            "type" : "VEC4"
        }, 
        {
            "bufferView" : 4, 
            "componentType" : 5126, 
            "count" : 3539, 
            "max" : [
                0.9927358031272888, 
                0.993577838409692
            ], 
            "min" : [
                0.37031906843185425, 
                0.011392712593078613
            ], 
            "type" : "VEC2"
        }, 
        {
            "bufferView" : 5, 
            "componentType" : 5123, 
            "count" : 3539, 
            "max" : [
                40, 
                40, 
                40, 
                37
            ], 
            "min" : [
                0, 
                0, 
                0, 
                0
            ], 
            "type" : "VEC4"
        }, 
        {
            "bufferView" : 6, 
            "componentType" : 5126, 
            "count" : 3539, 
            "max" : [
                0.9999364018440247, 
                0.9740455150604248, 
                0.9353913068771362, 
                0.8442552089691162
            ], 
            "min" : [
                0.00023797526955604553, 
                0.0, 
                0.0, 
                0.0
            ], 
            "type" : "VEC4"
        }, 
        {
            "bufferView" : 7, 
            "componentType" : 5123, 
            "count" : 3539, 
            "max" : [
                37, 
                27, 
                20, 
                0
            ], 
            "min" : [
                0, 
                0, 
                0, 
                0
            ], 
            "type" : "VEC4"
        }, 
        {
            "bufferView" : 8, 
            "componentType" : 5126, 
            "count" : 3539, 
            "max" : [
                0.6789627075195312, 
                0.2628112733364105, 
                0.11063491553068161, 
                0.0
            ], 
            "min" : [
                0.0, 
                0.0, 
                0.0, 
                0.0
            ], 
            "type" : "VEC4"
        }, 
        {
            "bufferView" : 9, 
            "componentType" : 5126, 
            "count" : 41, 
            "max" : [
                0.43375977873802185, 
                1.0000003576278687, 
                0.997833251953125, 
                0.0, 
                0.6729955077171326, 
                1.0000001192092896, 
                0.9969071745872498, 
                0.0, 
                1.0, 
                0.9955398440361023, 
                0.9983473420143127, 
                0.0, 
                44.287940979003906, 
                41.09016036987305, 
                67.64409637451172, 
                1.0
            ], 
            "min" : [
                -0.9966949820518494, 
                -1.0000001192092896, 
                -1.0000001192092896, 
                0.0, 
                -0.8531503677368164, 
                -0.9999614953994751, 
                -0.9975175857543945, 
                0.0, 
                -0.9993440508842468, 
                -0.30744481086730957, 
                -0.4462457597255707, 
                0.0, 
                -56.3353157043457, 
                -70.68925476074219, 
                -43.36322784423828, 
                1.0
            ], 
            "type" : "MAT4"
        }, 
        {
            "bufferView" : 10, 
            "componentType" : 5126, 
            "count" : 41, 
            "max" : [
                0.43375977873802185, 
                1.0000003576278687, 
                0.997833251953125, 
                0.0, 
                0.6729955077171326, 
                1.0000001192092896, 
                0.9969071745872498, 
                0.0, 
                1.0, 
                0.9955398440361023, 
                0.9983473420143127, 
                0.0, 
                44.287940979003906, 
                41.09016036987305, 
                67.64409637451172, 
                1.0
            ], 
            "min" : [
                -0.9966949820518494, 
                -1.0000001192092896, 
                -1.0000001192092896, 
                0.0, 
                -0.8531503677368164, 
                -0.9999614953994751, 
                -0.9975175857543945, 
                0.0, 
                -0.9993440508842468, 
                -0.30744481086730957, 
                -0.4462457597255707, 
                0.0, 
                -56.3353157043457, 
                -70.68925476074219, 
                -43.36322784423828, 
                1.0
            ], 
            "type" : "MAT4"
        }
    ], 
    "asset" : {
        "generator" : "Khronos Blender glTF 2.0 exporter", 
        "version" : "2.0"
    }, 
    "bufferViews" : [
        {
            "buffer" : 0, 
            "byteLength" : 30204, 
            "byteOffset" : 0, 
            "target" : 34963
        }, 
        {
            "buffer" : 0, 
            "byteLength" : 42468, 
            "byteOffset" : 30204, 
            "target" : 34962
        }, 
        {
            "buffer" : 0, 
            "byteLength" : 42468, 
            "byteOffset" : 72672, 
            "target" : 34962
        }, 
        {
            "buffer" : 0, 
            "byteLength" : 56624, 
            "byteOffset" : 115140, 
            "target" : 34962
        }, 
        {
            "buffer" : 0, 
            "byteLength" : 28312, 
            "byteOffset" : 171764, 
            "target" : 34962
        }, 
        {
            "buffer" : 0, 
            "byteLength" : 28312, 
            "byteOffset" : 200076, 
            "target" : 34962
        }, 
        {
            "buffer" : 0, 
            "byteLength" : 56624, 
            "byteOffset" : 228388, 
            "target" : 34962
        }, 
        {
            "buffer" : 0, 
            "byteLength" : 28312, 
            "byteOffset" : 285012, 
            "target" : 34962
        }, 
        {
            "buffer" : 0, 
            "byteLength" : 56624, 
            "byteOffset" : 313324, 
            "target" : 34962
        }, 
        {
            "buffer" : 0, 
            "byteLength" : 2624, 
            "byteOffset" : 369948
        }, 
        {
            "buffer" : 0, 
            "byteLength" : 2624, 
            "byteOffset" : 372572
        }
    ], 
    "buffers" : [
        {
            "byteLength" : 385700, 
            "uri" : "saber-suite.bin"
        }
    ], 
    "images" : [
        {
            "uri" : "saber-suite.png"
        }
    ], 
    "materials" : [
        {
            "name" : "07___Default", 
            "pbrMetallicRoughness" : {
                "baseColorFactor" : [
                    1, 
                    1, 
                    1, 
                    1.0
                ], 
                "baseColorTexture" : {
                    "index" : 0
                }, 
                "metallicFactor" : 0.0
            }
        }
    ], 
    "meshes" : [
        {
            "name" : "Untitled", 
            "primitives" : [
                {
                    "attributes" : {
                        "NORMAL" : 2, 
                        "POSITION" : 1, 
                        "TANGENT" : 3, 
                        "TEXCOORD_0" : 4
                    }, 
                    "indices" : 0, 
                    "material" : 0,
                    "extensions": {
                        "gl_avatar": {
                            "attributes": {
                                "JOINTS_0": 5,
                                "WEIGHTS_0": 6,
                                "JOINTS_1": 7,
                                "WEIGHTS_1": 8
                            }
                        }
                    }
                }
            ]
        }
    ], 
    "nodes" : [
        {
            "children" : [
                1
            ], 
            "name" : "Bip001", 
            "rotation" : [
                -1.5454320489993734e-08, 
                -0.7071062922477722, 
                1.54543009500685e-08, 
                0.7071073055267334
            ], 
            "scale" : [
                0.009999998845160007, 
                0.009999999776482582, 
                0.009999998845160007
            ], 
            "translation" : [
                0.0, 
                0.9365723133087158, 
                0.003923905547708273
            ]
        }, 
        {
            "mesh" : 0, 
            "name" : "F016_Saber_Suite", 
            "rotation" : [
                1.5028442891385613e-15, 
                0.7071062922477722, 
                1.4142532978045352e-10, 
                0.7071073055267334
            ], 
            "scale" : [
                1.0000001192092896, 
                1.0, 
                1.0000001192092896
            ], 
            "translation" : [
                2.3046278953552246, 
                -23.535865783691406, 
                3.196058287358028e-06
            ],
            "extensions": {
                "gl_avatar": {
                    "skin": {
                        "name": "main",
                        "inverseBindMatrices": 9
                    }
                }
            }
        }
    ], 
    "samplers" : [
        {}
    ], 
    "scene" : 0, 
    "scenes" : [
        {
            "name" : "Scene", 
            "nodes" : [
                0
            ]
        }
    ], 
    "textures" : [
        {
            "sampler" : 0, 
            "source" : 0
        }
    ]
}
