{
    "extensionsUsed": [
        "gl_avatar"
    ],
    "accessors" : [
        {
            "bufferView" : 0, 
            "componentType" : 5123, 
            "count" : 1230, 
            "max" : [
                427
            ], 
            "min" : [
                0
            ], 
            "type" : "SCALAR"
        }, 
        {
            "bufferView" : 1, 
            "componentType" : 5126, 
            "count" : 428, 
            "max" : [
                23.579862594604492, 
                14.008233070373535, 
                -36.13191604614258
            ], 
            "min" : [
                -22.944040298461914, 
                -8.987258911132812, 
                -65.49658203125
            ], 
            "type" : "VEC3"
        }, 
        {
            "bufferView" : 2, 
            "componentType" : 5126, 
            "count" : 428, 
            "max" : [
                0.99993896484375, 
                0.9949339032173157, 
                0.9796746969223022
            ], 
            "min" : [
                -0.99993896484375, 
                -0.9990233778953552, 
                -0.9975585341453552
            ], 
            "type" : "VEC3"
        }, 
        {
            "bufferView" : 3, 
            "componentType" : 5126, 
            "count" : 428, 
            "max" : [
                0.9990361332893372, 
                0.999962329864502, 
                0.9999262690544128, 
                1.0
            ], 
            "min" : [
                -0.9857868552207947, 
                -0.9999704360961914, 
                -0.9996201992034912, 
                1.0
            ], 
            "type" : "VEC4"
        }, 
        {
            "bufferView" : 4, 
            "componentType" : 5126, 
            "count" : 428, 
            "max" : [
                0.9980079531669617, 
                0.9981009350158274
            ], 
            "min" : [
                0.0019920312333852053, 
                0.048561930656433105
            ], 
            "type" : "VEC2"
        }, 
        {
            "bufferView" : 5, 
            "componentType" : 5123, 
            "count" : 428, 
            "max" : [
                11, 
                12, 
                20, 
                20
            ], 
            "min" : [
                0, 
                0, 
                0, 
                0
            ], 
            "type" : "VEC4"
        }, 
        {
            "bufferView" : 6, 
            "componentType" : 5126, 
            "count" : 428, 
            "max" : [
                0.9503618478775024, 
                0.9259021878242493, 
                0.8499887585639954, 
                0.6809757351875305
            ], 
            "min" : [
                0.00032867491245269775, 
                0.0, 
                0.0, 
                0.0
            ], 
            "type" : "VEC4"
        }, 
        {
            "bufferView" : 7, 
            "componentType" : 5123, 
            "count" : 428, 
            "max" : [
                20, 
                20, 
                20, 
                0
            ], 
            "min" : [
                0, 
                0, 
                0, 
                0
            ], 
            "type" : "VEC4"
        }, 
        {
            "bufferView" : 8, 
            "componentType" : 5126, 
            "count" : 428, 
            "max" : [
                0.4328176975250244, 
                0.27535805106163025, 
                0.05603853985667229, 
                0.0
            ], 
            "min" : [
                0.0, 
                0.0, 
                0.0, 
                0.0
            ], 
            "type" : "VEC4"
        }, 
        {
            "bufferView" : 9, 
            "componentType" : 5126, 
            "count" : 25, 
            "max" : [
                0.24515093863010406, 
                1.1351146697998047, 
                1.1316289901733398, 
                0.0, 
                0.6865137219429016, 
                1.1179084777832031, 
                1.1351817846298218, 
                0.0, 
                1.1351147890090942, 
                1.110180139541626, 
                0.08977337926626205, 
                0.0, 
                79.08822631835938, 
                36.401885986328125, 
                14.208809852600098, 
                1.0
            ], 
            "min" : [
                -1.1351817846298218, 
                -1.1351149082183838, 
                -1.1316258907318115, 
                0.0, 
                -0.686513364315033, 
                -1.0170288078370504e-07, 
                -1.1351820230484009, 
                0.0, 
                -1.1351149082183838, 
                -1.1351819038391113, 
                -1.924674819520078e-07, 
                0.0, 
                -88.81153869628906, 
                -77.83500671386719, 
                -4.507938385009766, 
                1.0
            ], 
            "type" : "MAT4"
        }, 
        {
            "bufferView" : 10, 
            "componentType" : 5126, 
            "count" : 25, 
            "max" : [
                0.24515093863010406, 
                1.1351146697998047, 
                1.1316289901733398, 
                0.0, 
                0.6865137219429016, 
                1.1179084777832031, 
                1.1351817846298218, 
                0.0, 
                1.1351147890090942, 
                1.110180139541626, 
                0.08977337926626205, 
                0.0, 
                79.08822631835938, 
                36.401885986328125, 
                14.208809852600098, 
                1.0
            ], 
            "min" : [
                -1.1351817846298218, 
                -1.1351149082183838, 
                -1.1316258907318115, 
                0.0, 
                -0.686513364315033, 
                -1.0170288078370504e-07, 
                -1.1351820230484009, 
                0.0, 
                -1.1351149082183838, 
                -1.1351819038391113, 
                -1.924674819520078e-07, 
                0.0, 
                -88.81153869628906, 
                -77.83500671386719, 
                -4.507938385009766, 
                1.0
            ], 
            "type" : "MAT4"
        }, 
        {
            "bufferView" : 11, 
            "componentType" : 5126, 
            "count" : 25, 
            "max" : [
                0.24515093863010406, 
                1.1351146697998047, 
                1.1316289901733398, 
                0.0, 
                0.6865137219429016, 
                1.1179084777832031, 
                1.1351817846298218, 
                0.0, 
                1.1351147890090942, 
                1.110180139541626, 
                0.08977337926626205, 
                0.0, 
                79.08822631835938, 
                36.401885986328125, 
                14.208809852600098, 
                1.0
            ], 
            "min" : [
                -1.1351817846298218, 
                -1.1351149082183838, 
                -1.1316258907318115, 
                0.0, 
                -0.686513364315033, 
                -1.0170288078370504e-07, 
                -1.1351820230484009, 
                0.0, 
                -1.1351149082183838, 
                -1.1351819038391113, 
                -1.924674819520078e-07, 
                0.0, 
                -88.81153869628906, 
                -77.83500671386719, 
                -4.507938385009766, 
                1.0
            ], 
            "type" : "MAT4"
        }
    ], 
    "asset" : {
        "generator" : "Khronos Blender glTF 2.0 exporter", 
        "version" : "2.0"
    }, 
    "bufferViews" : [
        {
            "buffer" : 0, 
            "byteLength" : 2460, 
            "byteOffset" : 0, 
            "target" : 34963
        }, 
        {
            "buffer" : 0, 
            "byteLength" : 5136, 
            "byteOffset" : 2460, 
            "target" : 34962
        }, 
        {
            "buffer" : 0, 
            "byteLength" : 5136, 
            "byteOffset" : 7596, 
            "target" : 34962
        }, 
        {
            "buffer" : 0, 
            "byteLength" : 6848, 
            "byteOffset" : 12732, 
            "target" : 34962
        }, 
        {
            "buffer" : 0, 
            "byteLength" : 3424, 
            "byteOffset" : 19580, 
            "target" : 34962
        }, 
        {
            "buffer" : 0, 
            "byteLength" : 3424, 
            "byteOffset" : 23004, 
            "target" : 34962
        }, 
        {
            "buffer" : 0, 
            "byteLength" : 6848, 
            "byteOffset" : 26428, 
            "target" : 34962
        }, 
        {
            "buffer" : 0, 
            "byteLength" : 3424, 
            "byteOffset" : 33276, 
            "target" : 34962
        }, 
        {
            "buffer" : 0, 
            "byteLength" : 6848, 
            "byteOffset" : 36700, 
            "target" : 34962
        }, 
        {
            "buffer" : 0, 
            "byteLength" : 1600, 
            "byteOffset" : 43548
        }, 
        {
            "buffer" : 0, 
            "byteLength" : 1600, 
            "byteOffset" : 45148
        }, 
        {
            "buffer" : 0, 
            "byteLength" : 1600, 
            "byteOffset" : 46748
        }
    ], 
    "buffers" : [
        {
            "byteLength" : 48348, 
            "uri" : "gltf_shirt.bin"
        }
    ], 
    "images" : [
        {
            "uri" : "gltfShirt.png"
        }
    ], 
    "materials" : [
        {
            "name" : "gltfshirt", 
            "pbrMetallicRoughness" : {
                "baseColorTexture" : {
                    "index" : 0
                }, 
                "metallicFactor" : 0.0
            }
        }
    ], 
    "meshes" : [
        {
            "name" : "Untitled.002", 
            "primitives" : [
                {
                    "attributes" : {
                        "NORMAL" : 2, 
                        "POSITION" : 1, 
                        "TANGENT" : 3, 
                        "TEXCOORD_0" : 4
                    }, 
                    "indices" : 0, 
                    "material" : 0,
                    "extensions": {
                        "gl_avatar": {
                            "attributes": {
                                "JOINTS_0" : 5, 
                                "JOINTS_1" : 7, 
                                "WEIGHTS_0" : 6, 
                                "WEIGHTS_1" : 8
                            }
                        }
                    }
                }
            ]
        }
    ], 
    "nodes" : [
        {
            "children" : [
                3
            ], 
            "name" : "Armature", 
            "rotation" : [
                0.7071068286895752, 
                0.0, 
                -0.0, 
                0.7071067094802856
            ], 
            "scale" : [
                0.009999999776482582, 
                0.009999999776482582, 
                0.009999999776482582
            ]
        }, 
        {
            "name" : "Empty", 
            "translation" : [
                0.13118301331996918, 
                0.02714092656970024, 
                0.0657266229391098
            ]
        }, 
        {
            "name" : "Point", 
            "translation" : [
                0.0, 
                0.8216755986213684, 
                1.3044323921203613
            ]
        }, 
        {
            "mesh" : 0, 
            "name" : "polySurface1", 
            "scale" : [
                1.1351817846298218, 
                1.1351817846298218, 
                1.1351817846298218
            ], 
            "translation" : [
                -0.286424845457077, 
                0.24384410679340363, 
                7.986446380615234
            ],
            "extensions": {
                "gl_avatar": {
                    "skin": "patrick"
                }
            }
        }
    ], 
    "samplers" : [
        {}
    ], 
    "scene" : 0, 
    "scenes" : [
        {
            "name" : "Scene", 
            "nodes" : [
                1, 
                2, 
                0
            ]
        }
    ], 
    "textures" : [
        {
            "sampler" : 0, 
            "source" : 0
        }
    ]
}
