{
    "extensionsUsed": [
        "gl_avatar"
    ],
    "accessors" : [
        {
            "bufferView" : 0, 
            "componentType" : 5123, 
            "count" : 9216, 
            "max" : [
                4695
            ], 
            "min" : [
                0
            ], 
            "type" : "SCALAR"
        }, 
        {
            "bufferView" : 1, 
            "componentType" : 5126, 
            "count" : 4696, 
            "max" : [
                15.471351623535156, 
                22.80846405029297, 
                -72.68032836914062
            ], 
            "min" : [
                -20.032428741455078, 
                -16.79850196838379, 
                -106.79965209960938
            ], 
            "type" : "VEC3"
        }, 
        {
            "bufferView" : 2, 
            "componentType" : 5126, 
            "count" : 4696, 
            "max" : [
                0.99993896484375, 
                0.999969482421875, 
                1.0
            ], 
            "min" : [
                -0.99993896484375, 
                -1.0, 
                -1.0
            ], 
            "type" : "VEC3"
        }, 
        {
            "bufferView" : 3, 
            "componentType" : 5126, 
            "count" : 4696, 
            "max" : [
                1.0, 
                0.9999939203262329, 
                0.9988456964492798, 
                1.0
            ], 
            "min" : [
                -1.0, 
                -0.9999412894248962, 
                -0.9993374347686768, 
                1.0
            ], 
            "type" : "VEC4"
        }, 
        {
            "bufferView" : 4, 
            "componentType" : 5126, 
            "count" : 4696, 
            "max" : [
                0.65625, 
                0.9790659993886948
            ], 
            "min" : [
                0.34375, 
                0.020933985710144043
            ], 
            "type" : "VEC2"
        }, 
        {
            "bufferView" : 5, 
            "componentType" : 5123, 
            "count" : 4696, 
            "max" : [
                0, 
                4, 
                4, 
                14
            ], 
            "min" : [
                0, 
                2, 
                0, 
                0
            ], 
            "type" : "VEC4"
        }, 
        {
            "bufferView" : 6, 
            "componentType" : 5126, 
            "count" : 4696, 
            "max" : [
                0.0, 
                1.0, 
                1.0, 
                1.0
            ], 
            "min" : [
                0.0, 
                0.0, 
                0.0, 
                0.0
            ], 
            "type" : "VEC4"
        }, 
        {
            "bufferView" : 7, 
            "componentType" : 5123, 
            "count" : 4696, 
            "max" : [
                9, 
                2, 
                0, 
                0
            ], 
            "min" : [
                0, 
                0, 
                0, 
                0
            ], 
            "type" : "VEC4"
        }, 
        {
            "bufferView" : 8, 
            "componentType" : 5126, 
            "count" : 4696, 
            "max" : [
                0.06479498744010925, 
                0.0, 
                0.0, 
                0.0
            ], 
            "min" : [
                0.0, 
                0.0, 
                0.0, 
                0.0
            ], 
            "type" : "VEC4"
        }, 
        {
            "bufferView" : 9, 
            "componentType" : 5121, 
            "count" : 432, 
            "max" : [
                128
            ], 
            "min" : [
                0
            ], 
            "type" : "SCALAR"
        }, 
        {
            "bufferView" : 10, 
            "componentType" : 5126, 
            "count" : 129, 
            "max" : [
                13.733443260192871, 
                17.31581687927246, 
                -85.21016693115234
            ], 
            "min" : [
                -18.17166519165039, 
                -13.827381134033203, 
                -88.50227355957031
            ], 
            "type" : "VEC3"
        }, 
        {
            "bufferView" : 11, 
            "componentType" : 5126, 
            "count" : 129, 
            "max" : [
                0.9962767362594604, 
                0.9887081384658813, 
                1.0
            ], 
            "min" : [
                -0.999298095703125, 
                -0.9927365779876709, 
                -1.0
            ], 
            "type" : "VEC3"
        }, 
        {
            "bufferView" : 12, 
            "componentType" : 5126, 
            "count" : 129, 
            "max" : [
                0.9999999403953552, 
                0.998101532459259, 
                0.25165805220603943, 
                1.0
            ], 
            "min" : [
                -0.9973931312561035, 
                -0.996424674987793, 
                -0.2153322696685791, 
                1.0
            ], 
            "type" : "VEC4"
        }, 
        {
            "bufferView" : 13, 
            "componentType" : 5126, 
            "count" : 129, 
            "max" : [
                0.65625, 
                0.9976260000839829
            ], 
            "min" : [
                0.34375, 
                0.002373993396759033
            ], 
            "type" : "VEC2"
        }, 
        {
            "bufferView" : 14, 
            "componentType" : 5123, 
            "count" : 129, 
            "max" : [
                3, 
                4, 
                0, 
                0
            ], 
            "min" : [
                3, 
                4, 
                0, 
                0
            ], 
            "type" : "VEC4"
        }, 
        {
            "bufferView" : 15, 
            "componentType" : 5126, 
            "count" : 129, 
            "max" : [
                1.0, 
                0.0015305280685424805, 
                0.0, 
                0.0
            ], 
            "min" : [
                0.9984694719314575, 
                0.0, 
                0.0, 
                0.0
            ], 
            "type" : "VEC4"
        }, 
        {
            "bufferView" : 16, 
            "componentType" : 5126, 
            "count" : 25, 
            "max" : [
                0.19553644955158234, 
                0.9053862690925598, 
                0.9026060104370117, 
                0.0, 
                0.6450686454772949, 
                1.0504199266433716, 
                1.066650390625, 
                0.0, 
                1.017427921295166, 
                0.995078444480896, 
                0.08046582341194153, 
                0.0, 
                71.53195190429688, 
                29.140724182128906, 
                14.334110260009766, 
                1.0
            ], 
            "min" : [
                -0.9054397940635681, 
                -0.9053864479064941, 
                -0.9026035666465759, 
                0.0, 
                -0.6450682282447815, 
                -9.556302416058315e-08, 
                -1.066650629043579, 
                0.0, 
                -1.0174280405044556, 
                -1.0174881219863892, 
                -1.7251277029117773e-07, 
                0.0, 
                -80.7259750366211, 
                -69.84855651855469, 
                -6.998055458068848, 
                1.0
            ], 
            "type" : "MAT4"
        }, 
        {
            "bufferView" : 17, 
            "componentType" : 5126, 
            "count" : 25, 
            "max" : [
                0.19553644955158234, 
                0.9053862690925598, 
                0.9026060104370117, 
                0.0, 
                0.6450686454772949, 
                1.0504199266433716, 
                1.066650390625, 
                0.0, 
                1.017427921295166, 
                0.995078444480896, 
                0.08046582341194153, 
                0.0, 
                71.53195190429688, 
                29.140724182128906, 
                14.334110260009766, 
                1.0
            ], 
            "min" : [
                -0.9054397940635681, 
                -0.9053864479064941, 
                -0.9026035666465759, 
                0.0, 
                -0.6450682282447815, 
                -9.556302416058315e-08, 
                -1.066650629043579, 
                0.0, 
                -1.0174280405044556, 
                -1.0174881219863892, 
                -1.7251277029117773e-07, 
                0.0, 
                -80.7259750366211, 
                -69.84855651855469, 
                -6.998055458068848, 
                1.0
            ], 
            "type" : "MAT4"
        }, 
        {
            "bufferView" : 18, 
            "componentType" : 5126, 
            "count" : 25, 
            "max" : [
                0.19553644955158234, 
                0.9053862690925598, 
                0.9026060104370117, 
                0.0, 
                0.6450686454772949, 
                1.0504199266433716, 
                1.066650390625, 
                0.0, 
                1.017427921295166, 
                0.995078444480896, 
                0.08046582341194153, 
                0.0, 
                71.53195190429688, 
                29.140724182128906, 
                14.334110260009766, 
                1.0
            ], 
            "min" : [
                -0.9054397940635681, 
                -0.9053864479064941, 
                -0.9026035666465759, 
                0.0, 
                -0.6450682282447815, 
                -9.556302416058315e-08, 
                -1.066650629043579, 
                0.0, 
                -1.0174280405044556, 
                -1.0174881219863892, 
                -1.7251277029117773e-07, 
                0.0, 
                -80.7259750366211, 
                -69.84855651855469, 
                -6.998055458068848, 
                1.0
            ], 
            "type" : "MAT4"
        }
    ], 
    "asset" : {
        "generator" : "Khronos Blender glTF 2.0 exporter", 
        "version" : "2.0"
    }, 
    "bufferViews" : [
        {
            "buffer" : 0, 
            "byteLength" : 18432, 
            "byteOffset" : 0, 
            "target" : 34963
        }, 
        {
            "buffer" : 0, 
            "byteLength" : 56352, 
            "byteOffset" : 18432, 
            "target" : 34962
        }, 
        {
            "buffer" : 0, 
            "byteLength" : 56352, 
            "byteOffset" : 74784, 
            "target" : 34962
        }, 
        {
            "buffer" : 0, 
            "byteLength" : 75136, 
            "byteOffset" : 131136, 
            "target" : 34962
        }, 
        {
            "buffer" : 0, 
            "byteLength" : 37568, 
            "byteOffset" : 206272, 
            "target" : 34962
        }, 
        {
            "buffer" : 0, 
            "byteLength" : 37568, 
            "byteOffset" : 243840, 
            "target" : 34962
        }, 
        {
            "buffer" : 0, 
            "byteLength" : 75136, 
            "byteOffset" : 281408, 
            "target" : 34962
        }, 
        {
            "buffer" : 0, 
            "byteLength" : 37568, 
            "byteOffset" : 356544, 
            "target" : 34962
        }, 
        {
            "buffer" : 0, 
            "byteLength" : 75136, 
            "byteOffset" : 394112, 
            "target" : 34962
        }, 
        {
            "buffer" : 0, 
            "byteLength" : 432, 
            "byteOffset" : 469248, 
            "target" : 34963
        }, 
        {
            "buffer" : 0, 
            "byteLength" : 1548, 
            "byteOffset" : 469680, 
            "target" : 34962
        }, 
        {
            "buffer" : 0, 
            "byteLength" : 1548, 
            "byteOffset" : 471228, 
            "target" : 34962
        }, 
        {
            "buffer" : 0, 
            "byteLength" : 2064, 
            "byteOffset" : 472776, 
            "target" : 34962
        }, 
        {
            "buffer" : 0, 
            "byteLength" : 1032, 
            "byteOffset" : 474840, 
            "target" : 34962
        }, 
        {
            "buffer" : 0, 
            "byteLength" : 1032, 
            "byteOffset" : 475872, 
            "target" : 34962
        }, 
        {
            "buffer" : 0, 
            "byteLength" : 2064, 
            "byteOffset" : 476904, 
            "target" : 34962
        }, 
        {
            "buffer" : 0, 
            "byteLength" : 1600, 
            "byteOffset" : 478968
        }, 
        {
            "buffer" : 0, 
            "byteLength" : 1600, 
            "byteOffset" : 480568
        }, 
        {
            "buffer" : 0, 
            "byteLength" : 1600, 
            "byteOffset" : 482168
        }
    ], 
    "buffers" : [
        {
            "byteLength" : 485368, 
            "uri" : "hair.bin"
        }
    ], 
    "materials" : [
        {
            "name" : "hair-color", 
            "pbrMetallicRoughness" : {
                "baseColorFactor": [ 0.25, 0.0, 0.02, 1.0 ],
              "metallicFactor" : 0.0
            }
        },
        {
            "name" : "hair-bend-color", 
            "pbrMetallicRoughness" : {
                "baseColorFactor": [ 0.5, 0.5, 0.5, 1.0 ],
              "metallicFactor" : 0.0
            }
        }
    ], 
    "meshes" : [
        {
            "name" : "hair1", 
            "primitives" : [
                {
                    "attributes" : {
                        "JOINTS_0" : 5, 
                        "JOINTS_1" : 7, 
                        "NORMAL" : 2, 
                        "POSITION" : 1, 
                        "TANGENT" : 3, 
                        "TEXCOORD_0" : 4, 
                        "WEIGHTS_0" : 6, 
                        "WEIGHTS_1" : 8
                    }, 
                    "indices" : 0,
                    "material": 0
                }
            ]
        }, 
        {
            "name" : "ddddddd group2", 
            "primitives" : [
                {
                    "attributes" : {
                        "JOINTS_0" : 14, 
                        "NORMAL" : 11, 
                        "POSITION" : 10, 
                        "TANGENT" : 12, 
                        "TEXCOORD_0" : 13, 
                        "WEIGHTS_0" : 15
                    }, 
                    "indices" : 9,
                    "material": 1
                }
            ]
        }
    ], 
    "nodes" : [
        {
            "children" : [
                1, 
                2
            ], 
            "name" : "Armature", 
            "rotation" : [
                0.7071068286895752, 
                0.0, 
                -0.0, 
                0.7071067094802856
            ], 
            "scale" : [
                0.009999999776482582, 
                0.009999999776482582, 
                0.009999999776482582
            ]
        }, 
        {
            "mesh" : 0, 
            "name" : "hair1", 
            "rotation" : [
                3.491651708907649e-15, 
                0.0, 
                -0.0, 
                1.0
            ], 
            "scale" : [
                0.9054397940635681, 
                1.066650390625, 
                1.0174880027770996
            ], 
            "translation" : [
                1.0451924800872803, 
                -2.2462730407714844, 
                3.659642970887944e-07
            ],
            "extensions": {
                "gl_avatar": {
                    "skin": {
                        "name": "patrick",
                        "inverseBindMatrices": 16
                    }
                }
            }
        }, 
        {
            "mesh" : 1, 
            "name" : "hairbend", 
            "rotation" : [
                3.491651708907649e-15, 
                0.0, 
                -0.0, 
                1.0
            ], 
            "scale" : [
                0.9054397940635681, 
                1.066650390625, 
                1.0174880027770996
            ], 
            "translation" : [
                1.0451924800872803, 
                -2.2462730407714844, 
                3.659642970887944e-07
            ],
            "extensions": {
                "gl_avatar": {
                    "skin": {
                        "name": "patrick",
                        "inverseBindMatrices": 18
                    }
                }
            }
        }, 
        {
            "name" : "Point", 
            "translation" : [
                0.0, 
                0.8216755986213684, 
                1.3044323921203613
            ]
        }
    ], 
    "scene" : 0, 
    "scenes" : [
        {
            "name" : "Scene", 
            "nodes" : [
                3, 
                0
            ]
        }
    ]
}
